<?xml version="1.0" encoding="UTF-8"?>
<svg xmlns="http://www.w3.org/2000/svg" width="371" height="50" viewBox="0 0 371 50" fill="none">
  <path d="M353.693 43.2413C354.321 47.2871 357.194 49.9941 362.36 49.9941C367.128 49.9941 370.445 47.4588 370.445 43.3776C370.445 40.0071 368.881 37.928 362.519 36.3938C358.089 35.3216 357.017 34.2969 357.017 32.2533C357.017 30.4703 358.13 28.563 361.998 28.563C365.866 28.563 367.264 30.885 367.661 32.7509H369.989C369.634 29.564 367.211 26.4483 362.087 26.4483C356.963 26.4483 354.629 29.3389 354.629 32.4428C354.629 35.5467 356.063 37.1757 361.897 38.5796C366.891 39.782 367.969 41.0259 367.969 43.5612C367.969 46.0964 366.37 47.8735 362.407 47.8735C358.882 47.8735 356.827 46.1379 356.075 43.2413H353.693ZM331.297 36.4886C331.783 31.815 333.88 28.6044 338.47 28.6044C343.061 28.6044 345.241 32.0815 345.288 36.4886H331.297ZM347.663 38.5085C347.711 37.9221 347.711 37.2942 347.711 36.6663C347.711 32.4073 345.501 26.4424 338.559 26.4424C331.984 26.4424 328.779 31.963 328.779 38.4019C328.779 44.118 331.445 49.9941 338.293 49.9941C343.855 49.9941 346.242 46.5999 347.184 43.6382H344.802C343.997 45.4685 342.575 47.8202 338.387 47.8202C334.199 47.8202 331.214 44.2424 331.167 38.5144H347.669L347.663 38.5085ZM299.66 29.1494H303.824V44.7044C303.824 48.3059 305.435 49.769 308.349 49.769C309.303 49.769 310.393 49.6801 311.169 49.3662V47.3344C310.458 47.5536 309.522 47.601 308.853 47.601C306.703 47.601 306.164 46.1794 306.164 43.6797V29.1494H311.495V26.9814H306.164V19.9917H303.83V26.9814H299.666V29.1494H299.66ZM290.757 49.455H293.096V26.9814H290.757V49.455ZM273.744 49.455H276.084V37.8095C276.084 32.4428 279.224 29.2501 283.891 28.948V26.4424C280.248 26.6201 277.382 28.64 276.084 31.9927C276.084 29.1553 276.037 27.6981 275.995 26.9814H273.703C273.703 27.7278 273.75 29.3508 273.75 33.0944V49.455H273.744ZM264.19 26.9755H261.85V38.5381C261.85 44.9236 259.978 47.7254 254.991 47.7254C250.578 47.7254 249.553 44.5563 249.553 41.2984V26.9814H247.261V41.8552C247.261 48.7028 251.372 49.9941 254.635 49.9941C258.61 49.9941 260.896 48.217 261.85 45.5752C261.85 47.3937 261.898 48.8745 261.986 49.455H264.231C264.231 48.5724 264.184 45.0954 264.184 42.8918V26.9755H264.19ZM237.303 42.8326C236.148 46.1675 234.188 47.8202 230.936 47.8202C226.262 47.8202 223.762 43.5553 223.762 38.2182C223.762 32.8812 226.434 28.6163 231.155 28.6163C234.946 28.6163 236.64 31.0627 237.303 33.6512H239.679C239.282 30.5177 236.948 26.4424 231.196 26.4424C224.586 26.4424 221.286 32.1407 221.286 38.313C221.286 45.8062 225.279 50 230.93 50C236 50 238.606 46.7895 239.685 42.8385H237.303V42.8326ZM198.38 36.4886C198.872 31.815 200.963 28.6044 205.554 28.6044C210.144 28.6044 212.324 32.0815 212.371 36.4886H198.38ZM214.747 38.5085C214.794 37.9221 214.794 37.2942 214.794 36.6663C214.794 32.4073 212.585 26.4424 205.642 26.4424C199.067 26.4424 195.863 31.963 195.863 38.4019C195.863 44.118 198.528 49.9941 205.37 49.9941C210.932 49.9941 213.319 46.5999 214.261 43.6382H211.88C211.074 45.4685 209.653 47.8202 205.465 47.8202C201.277 47.8202 198.291 44.2424 198.244 38.5144H214.747V38.5085ZM166.713 40.9963C167.3 45.2494 170.202 49.8164 178.063 49.8164C185.36 49.8164 188.749 45.824 188.749 41.174C188.749 37.3889 187.434 33.8408 178.578 31.6432C172.803 30.2097 170.753 28.8769 170.753 25.4472C170.753 22.0175 173.205 19.8851 177.701 19.8851C182.624 19.8851 184.798 22.3019 185.509 25.6427H188.115C187.712 21.8102 184.78 17.5809 177.838 17.5809C170.895 17.5809 168.058 21.437 168.058 25.6012C168.058 30.1327 170.913 32.3066 177.601 33.977C184.484 35.6771 186.053 37.851 186.053 41.3754C186.053 44.8999 183.868 47.6069 178.163 47.6069C173.034 47.6069 170.262 45.1605 169.32 41.0082H166.713V40.9963Z" fill="white"></path>
  <path d="M157.787 49.455V18.2028H151.774C148.102 27.6508 142.978 41.3873 142.244 44.3905H142.172C141.1 40.4099 136.764 27.8995 133.216 18.2028H127.032V49.455H130.936V36.9921C130.936 31.6313 130.829 24.6949 130.586 21.0816H130.722C132.126 26.4187 137.363 41.4524 140.07 49.455H143.784C147.367 39.6221 152.426 26.2113 153.765 21.1468H153.931C153.794 24.4343 153.735 30.3341 153.735 36.1391V49.455H157.787ZM100.122 36.53C102.521 29.5048 104.351 24.2211 105.115 21.5674H105.163C105.838 23.9486 107.479 28.3142 110.452 36.53H100.122ZM111.519 40.0782L114.984 49.455H119.403L107.793 18.2028H102.693L91.5623 49.455H95.6851L99.0496 40.0782H111.519ZM62.7684 40.7535C63.414 45.5515 66.8023 49.846 74.6627 49.846C82.5231 49.846 86.0417 45.895 86.0417 40.8542C86.0417 36.844 84.466 33.3728 75.5571 31.2048C70.0839 29.878 68.3187 28.7229 68.3187 25.7908C68.3187 22.8587 70.457 21.0994 74.2599 21.0994C78.821 21.0994 80.5565 23.3799 81.1193 26.164H85.3368C84.9162 22.059 81.8538 17.7586 74.4139 17.7586C67.4361 17.7586 64.0123 21.5437 64.0123 26.1817C64.0123 30.5769 66.5712 33.0944 73.9341 34.8892C80.2011 36.4056 81.7412 38.159 81.7412 41.2984C81.7412 44.2483 79.8102 46.5348 74.9352 46.5348C70.2185 46.5096 67.8448 44.5089 66.9977 40.7594H62.7802L62.7684 40.7535Z" fill="white"></path>
  <path d="M31.605 0H30.4026L22.7672 13.1146L23.3655 14.1452L31.605 0Z" fill="white"></path>
  <path d="M37.7654 17.2373H25.1662L25.7704 18.268H37.7654V17.2373Z" fill="white"></path>
  <path d="M20.9665 18.268L20.3623 17.2373H0.417969V18.268H19.764L9.72373 35.5053H10.9262L20.9606 18.268H20.9665Z" fill="white"></path>
  <path d="M55.0205 26.6793H51.0873V49.455H55.0205V26.6793Z" fill="white"></path>
  <path d="M55.0205 17.7526H51.0873V22.6632H55.0205V17.7526Z" fill="white"></path>
  <path d="M293.091 17.7526H290.757V22.1419H293.091V17.7526Z" fill="white"></path>
  <path d="M320.706 26.9755H318.372V49.4491H320.706V26.9755Z" fill="white"></path>
  <path d="M320.706 17.7526H318.372V22.1419H320.706V17.7526Z" fill="white"></path>
</svg>
